<?xml version="1.0" encoding="UTF-8" standalone="no"?>
<!DOCTYPE svg PUBLIC "-//W3C//DTD SVG 1.1//EN"
 "http://www.w3.org/Graphics/SVG/1.1/DTD/svg11.dtd">
<!-- Generated by graphviz version 7.1.0 (0)
 -->
<!-- Title: lab1_v3_nfa Pages: 1 -->
<svg width="294pt" height="128pt"
 viewBox="0.00 0.00 294.40 128.20" xmlns="http://www.w3.org/2000/svg" xmlns:xlink="http://www.w3.org/1999/xlink">
<g id="graph0" class="graph" transform="scale(1 1) rotate(0) translate(4 124.2)">
<title>lab1_v3_nfa</title>
<polygon fill="white" stroke="none" points="-4,4 -4,-124.2 290.4,-124.2 290.4,4 -4,4"/>
<!-- ε -->
<g id="node1" class="node">
<title>ε</title>
<ellipse fill="none" stroke="black" cx="264.4" cy="-62" rx="18" ry="18"/>
<ellipse fill="none" stroke="black" cx="264.4" cy="-62" rx="22" ry="22"/>
<text text-anchor="middle" x="264.4" y="-58.3" font-family="Times,serif" font-size="14.00">ε</text>
</g>
<!-- D -->
<g id="node2" class="node">
<title>D</title>
<ellipse fill="none" stroke="black" cx="100.2" cy="-69" rx="18.4" ry="18.4"/>
<text text-anchor="middle" x="100.2" y="-65.3" font-family="Times,serif" font-size="14.00">D</text>
</g>
<!-- D&#45;&gt;ε -->
<g id="edge5" class="edge">
<title>D&#45;&gt;ε</title>
<path fill="none" stroke="black" d="M118.44,-72.81C138.26,-76.66 171.74,-81.58 200.4,-78 210.78,-76.7 221.9,-74.25 231.87,-71.64"/>
<polygon fill="black" stroke="black" points="232.77,-75.02 241.47,-68.98 230.9,-68.28 232.77,-75.02"/>
<text text-anchor="middle" x="182.4" y="-82.8" font-family="Times,serif" font-size="14.00">d</text>
</g>
<!-- D&#45;&gt;D -->
<g id="edge4" class="edge">
<title>D&#45;&gt;D</title>
<path fill="none" stroke="black" d="M92.9,-86.13C91.41,-96.01 93.84,-105.2 100.2,-105.2 103.87,-105.2 106.24,-102.13 107.29,-97.63"/>
<polygon fill="black" stroke="black" points="110.79,-97.71 107.47,-87.64 103.79,-97.58 110.79,-97.71"/>
<text text-anchor="middle" x="100.2" y="-109" font-family="Times,serif" font-size="14.00">c</text>
</g>
<!-- R -->
<g id="node4" class="node">
<title>R</title>
<ellipse fill="none" stroke="black" cx="182.4" cy="-18" rx="18" ry="18"/>
<text text-anchor="middle" x="182.4" y="-14.3" font-family="Times,serif" font-size="14.00">R</text>
</g>
<!-- D&#45;&gt;R -->
<g id="edge6" class="edge">
<title>D&#45;&gt;R</title>
<path fill="none" stroke="black" d="M116.28,-59.41C127.78,-52.1 143.85,-41.88 157.14,-33.42"/>
<polygon fill="black" stroke="black" points="158.81,-36.51 165.37,-28.19 155.06,-30.6 158.81,-36.51"/>
<text text-anchor="middle" x="141.4" y="-49.8" font-family="Times,serif" font-size="14.00">d</text>
</g>
<!-- S -->
<g id="node3" class="node">
<title>S</title>
<ellipse fill="none" stroke="black" cx="18" cy="-39" rx="18" ry="18"/>
<text text-anchor="middle" x="18" y="-35.3" font-family="Times,serif" font-size="14.00">S</text>
</g>
<!-- S&#45;&gt;D -->
<g id="edge2" class="edge">
<title>S&#45;&gt;D</title>
<path fill="none" stroke="black" d="M35.23,-45.07C45.74,-49 59.7,-54.22 71.89,-58.78"/>
<polygon fill="black" stroke="black" points="70.43,-61.98 81.02,-62.2 72.88,-55.42 70.43,-61.98"/>
<text text-anchor="middle" x="59" y="-58.8" font-family="Times,serif" font-size="14.00">b</text>
</g>
<!-- S&#45;&gt;S -->
<g id="edge3" class="edge">
<title>S&#45;&gt;S</title>
<path fill="none" stroke="black" d="M10.79,-55.66C9.19,-65.62 11.59,-75 18,-75 21.8,-75 24.2,-71.69 25.18,-66.92"/>
<polygon fill="black" stroke="black" points="28.68,-67.19 25.2,-57.18 21.68,-67.17 28.68,-67.19"/>
<text text-anchor="middle" x="18" y="-78.8" font-family="Times,serif" font-size="14.00">a</text>
</g>
<!-- S&#45;&gt;R -->
<g id="edge1" class="edge">
<title>S&#45;&gt;R</title>
<path fill="none" stroke="black" d="M36.04,-35.29C48.67,-32.65 66.34,-29.19 82,-27 105.73,-23.67 132.83,-21.31 152.73,-19.85"/>
<polygon fill="black" stroke="black" points="152.86,-23.35 162.59,-19.16 152.37,-16.37 152.86,-23.35"/>
<text text-anchor="middle" x="100.2" y="-30.8" font-family="Times,serif" font-size="14.00">f</text>
</g>
<!-- R&#45;&gt;ε -->
<g id="edge8" class="edge">
<title>R&#45;&gt;ε</title>
<path fill="none" stroke="black" d="M198.82,-26.48C209.04,-32.1 222.75,-39.64 234.9,-46.33"/>
<polygon fill="black" stroke="black" points="232.87,-49.2 243.31,-50.95 236.24,-43.07 232.87,-49.2"/>
<text text-anchor="middle" x="221.4" y="-43.8" font-family="Times,serif" font-size="14.00">f</text>
</g>
<!-- R&#45;&gt;R -->
<g id="edge7" class="edge">
<title>R&#45;&gt;R</title>
<path fill="none" stroke="black" d="M175.49,-35.04C174.08,-44.86 176.38,-54 182.4,-54 185.88,-54 188.11,-50.94 189.11,-46.47"/>
<polygon fill="black" stroke="black" points="192.61,-46.61 189.28,-36.55 185.61,-46.49 192.61,-46.61"/>
<text text-anchor="middle" x="182.4" y="-57.8" font-family="Times,serif" font-size="14.00">b</text>
</g>
</g>
</svg>
