<?xml version="1.0" encoding="UTF-8" standalone="no"?>
<!DOCTYPE svg PUBLIC "-//W3C//DTD SVG 1.1//EN"
 "http://www.w3.org/Graphics/SVG/1.1/DTD/svg11.dtd">
<!-- Generated by graphviz version 7.1.0 (0)
 -->
<!-- Title: variant_3_dfa Pages: 1 -->
<svg width="600pt" height="313pt"
 viewBox="0.00 0.00 600.16 312.84" xmlns="http://www.w3.org/2000/svg" xmlns:xlink="http://www.w3.org/1999/xlink">
<g id="graph0" class="graph" transform="scale(1 1) rotate(0) translate(4 308.84)">
<title>variant_3_dfa</title>
<polygon fill="white" stroke="none" points="-4,4 -4,-308.84 596.16,-308.84 596.16,4 -4,4"/>
<!-- {&#39;q2&#39;, &#39;q4&#39;, &#39;q3&#39;} -->
<g id="node1" class="node">
<title>{&#39;q2&#39;, &#39;q4&#39;, &#39;q3&#39;}</title>
<ellipse fill="none" stroke="black" cx="87.84" cy="-184" rx="83.69" ry="83.69"/>
<ellipse fill="none" stroke="black" cx="87.84" cy="-184" rx="87.69" ry="87.69"/>
<text text-anchor="middle" x="87.84" y="-180.3" font-family="Times,serif" font-size="14.00">{&#39;q2&#39;, &#39;q4&#39;, &#39;q3&#39;}</text>
</g>
<!-- {&#39;q2&#39;, &#39;q4&#39;, &#39;q3&#39;}&#45;&gt;{&#39;q2&#39;, &#39;q4&#39;, &#39;q3&#39;} -->
<g id="edge8" class="edge">
<title>{&#39;q2&#39;, &#39;q4&#39;, &#39;q3&#39;}&#45;&gt;{&#39;q2&#39;, &#39;q4&#39;, &#39;q3&#39;}</title>
<path fill="none" stroke="black" d="M69.38,-269.96C72.42,-281.88 78.58,-289.84 87.84,-289.84 94.07,-289.84 98.89,-286.24 102.31,-280.27"/>
<polygon fill="black" stroke="black" points="105.4,-281.96 105.76,-271.37 98.88,-279.43 105.4,-281.96"/>
<text text-anchor="middle" x="87.84" y="-293.64" font-family="Times,serif" font-size="14.00">b</text>
</g>
<!-- {&#39;q1&#39;} -->
<g id="node3" class="node">
<title>{&#39;q1&#39;}</title>
<ellipse fill="none" stroke="black" cx="259.68" cy="-80" rx="38.99" ry="38.99"/>
<text text-anchor="middle" x="259.68" y="-76.3" font-family="Times,serif" font-size="14.00">{&#39;q1&#39;}</text>
</g>
<!-- {&#39;q2&#39;, &#39;q4&#39;, &#39;q3&#39;}&#45;&gt;{&#39;q1&#39;} -->
<g id="edge7" class="edge">
<title>{&#39;q2&#39;, &#39;q4&#39;, &#39;q3&#39;}&#45;&gt;{&#39;q1&#39;}</title>
<path fill="none" stroke="black" d="M162.84,-138.68C181.05,-127.53 199.94,-115.96 216.09,-106.08"/>
<polygon fill="black" stroke="black" points="217.77,-109.15 224.47,-100.95 214.12,-103.18 217.77,-109.15"/>
<text text-anchor="middle" x="198.19" y="-122.8" font-family="Times,serif" font-size="14.00">a</text>
</g>
<!-- {&#39;q2&#39;, &#39;q3&#39;} -->
<g id="node2" class="node">
<title>{&#39;q2&#39;, &#39;q3&#39;}</title>
<ellipse fill="none" stroke="black" cx="530.42" cy="-141" rx="61.99" ry="61.99"/>
<text text-anchor="middle" x="530.42" y="-137.3" font-family="Times,serif" font-size="14.00">{&#39;q2&#39;, &#39;q3&#39;}</text>
</g>
<!-- {&#39;q2&#39;, &#39;q3&#39;}&#45;&gt;{&#39;q2&#39;, &#39;q4&#39;, &#39;q3&#39;} -->
<g id="edge6" class="edge">
<title>{&#39;q2&#39;, &#39;q3&#39;}&#45;&gt;{&#39;q2&#39;, &#39;q4&#39;, &#39;q3&#39;}</title>
<path fill="none" stroke="black" d="M468.25,-146.97C395.41,-154.08 272.8,-166.04 186.73,-174.44"/>
<polygon fill="black" stroke="black" points="186.48,-170.95 176.87,-175.41 187.16,-177.92 186.48,-170.95"/>
<text text-anchor="middle" x="321.68" y="-164.8" font-family="Times,serif" font-size="14.00">b</text>
</g>
<!-- {&#39;q2&#39;, &#39;q3&#39;}&#45;&gt;{&#39;q1&#39;} -->
<g id="edge5" class="edge">
<title>{&#39;q2&#39;, &#39;q3&#39;}&#45;&gt;{&#39;q1&#39;}</title>
<path fill="none" stroke="black" d="M468.35,-135.78C431.99,-131.77 385.19,-124.99 344.68,-114 331.88,-110.52 318.4,-105.65 306.08,-100.68"/>
<polygon fill="black" stroke="black" points="307.57,-97.51 296.99,-96.9 304.88,-103.97 307.57,-97.51"/>
<text text-anchor="middle" x="383.67" y="-132.8" font-family="Times,serif" font-size="14.00">a</text>
</g>
<!-- {&#39;q1&#39;}&#45;&gt;{&#39;q1&#39;} -->
<g id="edge3" class="edge">
<title>{&#39;q1&#39;}&#45;&gt;{&#39;q1&#39;}</title>
<path fill="none" stroke="black" d="M248.19,-117.55C248.58,-128.5 252.41,-136.99 259.68,-136.99 264.22,-136.99 267.42,-133.68 269.28,-128.51"/>
<polygon fill="black" stroke="black" points="272.67,-129.49 270.92,-119.04 265.77,-128.29 272.67,-129.49"/>
<text text-anchor="middle" x="259.68" y="-140.79" font-family="Times,serif" font-size="14.00">b</text>
</g>
<!-- {&#39;q2&#39;} -->
<g id="node5" class="node">
<title>{&#39;q2&#39;}</title>
<ellipse fill="none" stroke="black" cx="383.67" cy="-66" rx="38.99" ry="38.99"/>
<text text-anchor="middle" x="383.67" y="-62.3" font-family="Times,serif" font-size="14.00">{&#39;q2&#39;}</text>
</g>
<!-- {&#39;q1&#39;}&#45;&gt;{&#39;q2&#39;} -->
<g id="edge2" class="edge">
<title>{&#39;q1&#39;}&#45;&gt;{&#39;q2&#39;}</title>
<path fill="none" stroke="black" d="M298.61,-75.64C309.63,-74.38 321.82,-72.98 333.43,-71.65"/>
<polygon fill="black" stroke="black" points="333.73,-75.14 343.26,-70.52 332.93,-68.18 333.73,-75.14"/>
<text text-anchor="middle" x="321.68" y="-77.8" font-family="Times,serif" font-size="14.00">a</text>
</g>
<!-- {&#39;q0&#39;} -->
<g id="node4" class="node">
<title>{&#39;q0&#39;}</title>
<ellipse fill="none" stroke="black" cx="87.84" cy="-39" rx="38.99" ry="38.99"/>
<text text-anchor="middle" x="87.84" y="-35.3" font-family="Times,serif" font-size="14.00">{&#39;q0&#39;}</text>
</g>
<!-- {&#39;q0&#39;}&#45;&gt;{&#39;q1&#39;} -->
<g id="edge1" class="edge">
<title>{&#39;q0&#39;}&#45;&gt;{&#39;q1&#39;}</title>
<path fill="none" stroke="black" d="M126.11,-47.99C150.89,-53.98 183.67,-61.89 210.44,-68.35"/>
<polygon fill="black" stroke="black" points="209.48,-71.72 220.03,-70.66 211.13,-64.92 209.48,-71.72"/>
<text text-anchor="middle" x="198.19" y="-69.8" font-family="Times,serif" font-size="14.00">a</text>
</g>
<!-- {&#39;q2&#39;}&#45;&gt;{&#39;q2&#39;, &#39;q3&#39;} -->
<g id="edge4" class="edge">
<title>{&#39;q2&#39;}&#45;&gt;{&#39;q2&#39;, &#39;q3&#39;}</title>
<path fill="none" stroke="black" d="M418.61,-83.58C432.45,-90.75 448.93,-99.29 464.89,-107.56"/>
<polygon fill="black" stroke="black" points="462.91,-110.48 473.4,-111.97 466.13,-104.26 462.91,-110.48"/>
<text text-anchor="middle" x="445.67" y="-103.8" font-family="Times,serif" font-size="14.00">b</text>
</g>
</g>
</svg>
