<?xml version="1.0" encoding="UTF-8" standalone="no"?>
<!DOCTYPE svg PUBLIC "-//W3C//DTD SVG 1.1//EN"
 "http://www.w3.org/Graphics/SVG/1.1/DTD/svg11.dtd">
<!-- Generated by graphviz version 7.1.0 (0)
 -->
<!-- Title: variant_3_dfa Pages: 1 -->
<svg width="600pt" height="313pt"
 viewBox="0.00 0.00 600.16 312.84" xmlns="http://www.w3.org/2000/svg" xmlns:xlink="http://www.w3.org/1999/xlink">
<g id="graph0" class="graph" transform="scale(1 1) rotate(0) translate(4 308.84)">
<title>variant_3_dfa</title>
<polygon fill="white" stroke="none" points="-4,4 -4,-308.84 596.16,-308.84 596.16,4 -4,4"/>
<!-- {&#39;q2&#39;, &#39;q3&#39;, &#39;q4&#39;} -->
<g id="node1" class="node">
<title>{&#39;q2&#39;, &#39;q3&#39;, &#39;q4&#39;}</title>
<ellipse fill="none" stroke="black" cx="87.84" cy="-184" rx="83.69" ry="83.69"/>
<ellipse fill="none" stroke="black" cx="87.84" cy="-184" rx="87.69" ry="87.69"/>
<text text-anchor="middle" x="87.84" y="-180.3" font-family="Times,serif" font-size="14.00">{&#39;q2&#39;, &#39;q3&#39;, &#39;q4&#39;}</text>
</g>
<!-- {&#39;q2&#39;, &#39;q3&#39;, &#39;q4&#39;}&#45;&gt;{&#39;q2&#39;, &#39;q3&#39;, &#39;q4&#39;} -->
<g id="edge8" class="edge">
<title>{&#39;q2&#39;, &#39;q3&#39;, &#39;q4&#39;}&#45;&gt;{&#39;q2&#39;, &#39;q3&#39;, &#39;q4&#39;}</title>
<path fill="none" stroke="black" d="M69.38,-269.96C72.42,-281.88 78.58,-289.84 87.84,-289.84 94.07,-289.84 98.89,-286.24 102.31,-280.27"/>
<polygon fill="black" stroke="black" points="105.4,-281.96 105.76,-271.37 98.88,-279.43 105.4,-281.96"/>
<text text-anchor="middle" x="87.84" y="-293.64" font-family="Times,serif" font-size="14.00">b</text>
</g>
<!-- {&#39;q1&#39;} -->
<g id="node3" class="node">
<title>{&#39;q1&#39;}</title>
<ellipse fill="none" stroke="black" cx="259.68" cy="-64" rx="38.99" ry="38.99"/>
<text text-anchor="middle" x="259.68" y="-60.3" font-family="Times,serif" font-size="14.00">{&#39;q1&#39;}</text>
</g>
<!-- {&#39;q2&#39;, &#39;q3&#39;, &#39;q4&#39;}&#45;&gt;{&#39;q1&#39;} -->
<g id="edge7" class="edge">
<title>{&#39;q2&#39;, &#39;q3&#39;, &#39;q4&#39;}&#45;&gt;{&#39;q1&#39;}</title>
<path fill="none" stroke="black" d="M159.89,-133.8C179.67,-119.82 200.49,-105.11 217.89,-92.82"/>
<polygon fill="black" stroke="black" points="219.79,-95.76 225.94,-87.13 215.75,-90.04 219.79,-95.76"/>
<text text-anchor="middle" x="198.19" y="-112.8" font-family="Times,serif" font-size="14.00">a</text>
</g>
<!-- {&#39;q0&#39;} -->
<g id="node2" class="node">
<title>{&#39;q0&#39;}</title>
<ellipse fill="none" stroke="black" cx="87.84" cy="-39" rx="38.99" ry="38.99"/>
<text text-anchor="middle" x="87.84" y="-35.3" font-family="Times,serif" font-size="14.00">{&#39;q0&#39;}</text>
</g>
<!-- {&#39;q0&#39;}&#45;&gt;{&#39;q1&#39;} -->
<g id="edge1" class="edge">
<title>{&#39;q0&#39;}&#45;&gt;{&#39;q1&#39;}</title>
<path fill="none" stroke="black" d="M126.54,-44.54C150.97,-48.14 183.05,-52.86 209.48,-56.75"/>
<polygon fill="black" stroke="black" points="208.9,-60.21 219.3,-58.2 209.92,-53.28 208.9,-60.21"/>
<text text-anchor="middle" x="198.19" y="-59.8" font-family="Times,serif" font-size="14.00">a</text>
</g>
<!-- {&#39;q1&#39;}&#45;&gt;{&#39;q1&#39;} -->
<g id="edge3" class="edge">
<title>{&#39;q1&#39;}&#45;&gt;{&#39;q1&#39;}</title>
<path fill="none" stroke="black" d="M248.19,-101.55C248.58,-112.5 252.41,-120.99 259.68,-120.99 264.22,-120.99 267.42,-117.68 269.28,-112.51"/>
<polygon fill="black" stroke="black" points="272.67,-113.49 270.92,-103.04 265.77,-112.29 272.67,-113.49"/>
<text text-anchor="middle" x="259.68" y="-124.79" font-family="Times,serif" font-size="14.00">b</text>
</g>
<!-- {&#39;q2&#39;} -->
<g id="node5" class="node">
<title>{&#39;q2&#39;}</title>
<ellipse fill="none" stroke="black" cx="383.67" cy="-117" rx="38.99" ry="38.99"/>
<text text-anchor="middle" x="383.67" y="-113.3" font-family="Times,serif" font-size="14.00">{&#39;q2&#39;}</text>
</g>
<!-- {&#39;q1&#39;}&#45;&gt;{&#39;q2&#39;} -->
<g id="edge2" class="edge">
<title>{&#39;q1&#39;}&#45;&gt;{&#39;q2&#39;}</title>
<path fill="none" stroke="black" d="M295.97,-79.33C308.86,-84.93 323.64,-91.35 337.29,-97.28"/>
<polygon fill="black" stroke="black" points="335.51,-100.32 346.08,-101.1 338.3,-93.9 335.51,-100.32"/>
<text text-anchor="middle" x="321.68" y="-96.8" font-family="Times,serif" font-size="14.00">a</text>
</g>
<!-- {&#39;q2&#39;, &#39;q3&#39;} -->
<g id="node4" class="node">
<title>{&#39;q2&#39;, &#39;q3&#39;}</title>
<ellipse fill="none" stroke="black" cx="530.42" cy="-117" rx="61.99" ry="61.99"/>
<text text-anchor="middle" x="530.42" y="-113.3" font-family="Times,serif" font-size="14.00">{&#39;q2&#39;, &#39;q3&#39;}</text>
</g>
<!-- {&#39;q2&#39;, &#39;q3&#39;}&#45;&gt;{&#39;q2&#39;, &#39;q3&#39;, &#39;q4&#39;} -->
<g id="edge6" class="edge">
<title>{&#39;q2&#39;, &#39;q3&#39;}&#45;&gt;{&#39;q2&#39;, &#39;q3&#39;, &#39;q4&#39;}</title>
<path fill="none" stroke="black" d="M475.11,-146.02C458.7,-153.51 440.34,-160.68 422.67,-165 345.11,-183.95 254.53,-188.03 187.31,-187.73"/>
<polygon fill="black" stroke="black" points="187.42,-184.23 177.39,-187.65 187.36,-191.23 187.42,-184.23"/>
<text text-anchor="middle" x="321.68" y="-185.8" font-family="Times,serif" font-size="14.00">b</text>
</g>
<!-- {&#39;q2&#39;, &#39;q3&#39;}&#45;&gt;{&#39;q1&#39;} -->
<g id="edge5" class="edge">
<title>{&#39;q2&#39;, &#39;q3&#39;}&#45;&gt;{&#39;q1&#39;}</title>
<path fill="none" stroke="black" d="M480.07,-80.47C462.8,-69.77 442.7,-59.47 422.67,-54 385.47,-43.84 341.75,-47.4 309.11,-52.91"/>
<polygon fill="black" stroke="black" points="308.75,-49.42 299.54,-54.66 310.01,-56.31 308.75,-49.42"/>
<text text-anchor="middle" x="383.67" y="-57.8" font-family="Times,serif" font-size="14.00">a</text>
</g>
<!-- {&#39;q2&#39;}&#45;&gt;{&#39;q2&#39;, &#39;q3&#39;} -->
<g id="edge4" class="edge">
<title>{&#39;q2&#39;}&#45;&gt;{&#39;q2&#39;, &#39;q3&#39;}</title>
<path fill="none" stroke="black" d="M423.08,-117C433.55,-117 445.25,-117 456.96,-117"/>
<polygon fill="black" stroke="black" points="456.62,-120.5 466.62,-117 456.62,-113.5 456.62,-120.5"/>
<text text-anchor="middle" x="445.67" y="-120.8" font-family="Times,serif" font-size="14.00">b</text>
</g>
</g>
</svg>
