<?xml version="1.0" encoding="UTF-8" standalone="no"?>
<!DOCTYPE svg PUBLIC "-//W3C//DTD SVG 1.1//EN"
 "http://www.w3.org/Graphics/SVG/1.1/DTD/svg11.dtd">
<!-- Generated by graphviz version 7.1.0 (0)
 -->
<!-- Title: variant_3_nfa Pages: 1 -->
<svg width="243pt" height="187pt"
 viewBox="0.00 0.00 243.49 186.75" xmlns="http://www.w3.org/2000/svg" xmlns:xlink="http://www.w3.org/1999/xlink">
<g id="graph0" class="graph" transform="scale(1 1) rotate(0) translate(4 182.75)">
<title>variant_3_nfa</title>
<polygon fill="white" stroke="none" points="-4,4 -4,-182.75 239.49,-182.75 239.49,4 -4,4"/>
<!-- q4 -->
<g id="node1" class="node">
<title>q4</title>
<ellipse fill="none" stroke="black" cx="118.24" cy="-122.75" rx="22.96" ry="22.96"/>
<ellipse fill="none" stroke="black" cx="118.24" cy="-122.75" rx="27" ry="27"/>
<text text-anchor="middle" x="118.24" y="-119.05" font-family="Times,serif" font-size="14.00">q4</text>
</g>
<!-- q2 -->
<g id="node2" class="node">
<title>q2</title>
<ellipse fill="none" stroke="black" cx="212.74" cy="-104.75" rx="23" ry="23"/>
<text text-anchor="middle" x="212.74" y="-101.05" font-family="Times,serif" font-size="14.00">q2</text>
</g>
<!-- q2&#45;&gt;q2 -->
<g id="edge4" class="edge">
<title>q2&#45;&gt;q2</title>
<path fill="none" stroke="black" d="M204.42,-126.55C203.52,-136.66 206.29,-145.5 212.74,-145.5 216.57,-145.5 219.1,-142.38 220.34,-137.73"/>
<polygon fill="black" stroke="black" points="223.81,-138.26 220.96,-128.06 216.83,-137.81 223.81,-138.26"/>
<text text-anchor="middle" x="212.74" y="-149.3" font-family="Times,serif" font-size="14.00">b</text>
</g>
<!-- q3 -->
<g id="node5" class="node">
<title>q3</title>
<ellipse fill="none" stroke="black" cx="22.75" cy="-122.75" rx="23" ry="23"/>
<text text-anchor="middle" x="22.75" y="-119.05" font-family="Times,serif" font-size="14.00">q3</text>
</g>
<!-- q2&#45;&gt;q3 -->
<g id="edge5" class="edge">
<title>q2&#45;&gt;q3</title>
<path fill="none" stroke="black" d="M196.98,-121.81C184.59,-134.72 165.65,-151.44 144.99,-158.75 122.58,-166.68 114.57,-164.5 91.5,-158.75 77.6,-155.29 63.43,-148.38 51.66,-141.54"/>
<polygon fill="black" stroke="black" points="53.66,-138.66 43.3,-136.42 50,-144.63 53.66,-138.66"/>
<text text-anchor="middle" x="118.24" y="-167.55" font-family="Times,serif" font-size="14.00">b</text>
</g>
<!-- q0 -->
<g id="node3" class="node">
<title>q0</title>
<ellipse fill="none" stroke="black" cx="22.75" cy="-22.75" rx="23" ry="23"/>
<text text-anchor="middle" x="22.75" y="-19.05" font-family="Times,serif" font-size="14.00">q0</text>
</g>
<!-- q1 -->
<g id="node4" class="node">
<title>q1</title>
<ellipse fill="none" stroke="black" cx="118.24" cy="-22.75" rx="23" ry="23"/>
<text text-anchor="middle" x="118.24" y="-19.05" font-family="Times,serif" font-size="14.00">q1</text>
</g>
<!-- q0&#45;&gt;q1 -->
<g id="edge1" class="edge">
<title>q0&#45;&gt;q1</title>
<path fill="none" stroke="black" d="M45.91,-22.75C57.12,-22.75 70.97,-22.75 83.47,-22.75"/>
<polygon fill="black" stroke="black" points="83.41,-26.25 93.41,-22.75 83.41,-19.25 83.41,-26.25"/>
<text text-anchor="middle" x="68.5" y="-26.55" font-family="Times,serif" font-size="14.00">a</text>
</g>
<!-- q1&#45;&gt;q2 -->
<g id="edge3" class="edge">
<title>q1&#45;&gt;q2</title>
<path fill="none" stroke="black" d="M136.21,-37.79C150.29,-50.27 170.53,-68.21 186.51,-82.38"/>
<polygon fill="black" stroke="black" points="183.94,-84.78 193.75,-88.8 188.59,-79.55 183.94,-84.78"/>
<text text-anchor="middle" x="167.49" y="-71.55" font-family="Times,serif" font-size="14.00">a</text>
</g>
<!-- q1&#45;&gt;q1 -->
<g id="edge2" class="edge">
<title>q1&#45;&gt;q1</title>
<path fill="none" stroke="black" d="M109.24,-44.13C108.12,-54.42 111.13,-63.5 118.24,-63.5 122.47,-63.5 125.25,-60.3 126.57,-55.54"/>
<polygon fill="black" stroke="black" points="130.06,-55.83 127.16,-45.64 123.07,-55.42 130.06,-55.83"/>
<text text-anchor="middle" x="118.24" y="-67.3" font-family="Times,serif" font-size="14.00">b</text>
</g>
<!-- q3&#45;&gt;q4 -->
<g id="edge6" class="edge">
<title>q3&#45;&gt;q4</title>
<path fill="none" stroke="black" d="M45.91,-122.75C55.92,-122.75 68.05,-122.75 79.44,-122.75"/>
<polygon fill="black" stroke="black" points="79.41,-126.25 89.41,-122.75 79.41,-119.25 79.41,-126.25"/>
<text text-anchor="middle" x="68.5" y="-126.55" font-family="Times,serif" font-size="14.00">b</text>
</g>
<!-- q3&#45;&gt;q1 -->
<g id="edge7" class="edge">
<title>q3&#45;&gt;q1</title>
<path fill="none" stroke="black" d="M39.19,-106.24C54.21,-90.17 77.22,-65.56 94.36,-47.22"/>
<polygon fill="black" stroke="black" points="96.48,-50.09 100.75,-40.39 91.36,-45.31 96.48,-50.09"/>
<text text-anchor="middle" x="68.5" y="-81.55" font-family="Times,serif" font-size="14.00">a</text>
</g>
</g>
</svg>
