<?xml version="1.0" encoding="UTF-8" standalone="no"?>
<!DOCTYPE svg PUBLIC "-//W3C//DTD SVG 1.1//EN"
 "http://www.w3.org/Graphics/SVG/1.1/DTD/svg11.dtd">
<!-- Generated by graphviz version 7.1.0 (0)
 -->
<!-- Title: lab1_v3_dfa Pages: 1 -->
<svg width="574pt" height="182pt"
 viewBox="0.00 0.00 574.47 181.89" xmlns="http://www.w3.org/2000/svg" xmlns:xlink="http://www.w3.org/1999/xlink">
<g id="graph0" class="graph" transform="scale(1 1) rotate(0) translate(4 177.89)">
<title>lab1_v3_dfa</title>
<polygon fill="white" stroke="none" points="-4,4 -4,-177.89 570.47,-177.89 570.47,4 -4,4"/>
<!-- {&#39;ε&#39;, &#39;R&#39;} -->
<g id="node1" class="node">
<title>{&#39;ε&#39;, &#39;R&#39;}</title>
<ellipse fill="none" stroke="black" cx="282.53" cy="-116.45" rx="50.09" ry="50.09"/>
<ellipse fill="none" stroke="black" cx="282.53" cy="-116.45" rx="54.09" ry="54.09"/>
<text text-anchor="middle" x="282.53" y="-112.75" font-family="Times,serif" font-size="14.00">{&#39;ε&#39;, &#39;R&#39;}</text>
</g>
<!-- {&#39;ε&#39;} -->
<g id="node2" class="node">
<title>{&#39;ε&#39;}</title>
<ellipse fill="none" stroke="black" cx="529.97" cy="-86.45" rx="32.49" ry="32.49"/>
<ellipse fill="none" stroke="black" cx="529.97" cy="-86.45" rx="36.49" ry="36.49"/>
<text text-anchor="middle" x="529.97" y="-82.75" font-family="Times,serif" font-size="14.00">{&#39;ε&#39;}</text>
</g>
<!-- {&#39;ε&#39;, &#39;R&#39;}&#45;&gt;{&#39;ε&#39;} -->
<g id="edge9" class="edge">
<title>{&#39;ε&#39;, &#39;R&#39;}&#45;&gt;{&#39;ε&#39;}</title>
<path fill="none" stroke="black" d="M336.84,-118.12C370.04,-118.28 413.5,-116.89 451.47,-110.45 462.4,-108.59 473.93,-105.61 484.66,-102.37"/>
<polygon fill="black" stroke="black" points="485.57,-105.75 494.05,-99.4 483.46,-99.08 485.57,-105.75"/>
<text text-anchor="middle" x="417.03" y="-120.25" font-family="Times,serif" font-size="14.00">f</text>
</g>
<!-- {&#39;R&#39;} -->
<g id="node5" class="node">
<title>{&#39;R&#39;}</title>
<ellipse fill="none" stroke="black" cx="417.03" cy="-34.45" rx="34.39" ry="34.39"/>
<text text-anchor="middle" x="417.03" y="-30.75" font-family="Times,serif" font-size="14.00">{&#39;R&#39;}</text>
</g>
<!-- {&#39;ε&#39;, &#39;R&#39;}&#45;&gt;{&#39;R&#39;} -->
<g id="edge8" class="edge">
<title>{&#39;ε&#39;, &#39;R&#39;}&#45;&gt;{&#39;R&#39;}</title>
<path fill="none" stroke="black" d="M329.13,-88.23C344.97,-78.42 362.56,-67.53 377.75,-58.13"/>
<polygon fill="black" stroke="black" points="379.4,-61.23 386.06,-52.99 375.71,-55.28 379.4,-61.23"/>
<text text-anchor="middle" x="359.58" y="-75.25" font-family="Times,serif" font-size="14.00">b</text>
</g>
<!-- {&#39;S&#39;} -->
<g id="node3" class="node">
<title>{&#39;S&#39;}</title>
<ellipse fill="none" stroke="black" cx="33.8" cy="-50.45" rx="33.6" ry="33.6"/>
<text text-anchor="middle" x="33.8" y="-46.75" font-family="Times,serif" font-size="14.00">{&#39;S&#39;}</text>
</g>
<!-- {&#39;S&#39;}&#45;&gt;{&#39;S&#39;} -->
<g id="edge1" class="edge">
<title>{&#39;S&#39;}&#45;&gt;{&#39;S&#39;}</title>
<path fill="none" stroke="black" d="M23.15,-82.82C23.15,-93.61 26.7,-102.24 33.8,-102.24 38.12,-102.24 41.13,-99.04 42.82,-94.09"/>
<polygon fill="black" stroke="black" points="46.27,-94.72 44.23,-84.32 39.34,-93.72 46.27,-94.72"/>
<text text-anchor="middle" x="33.8" y="-106.04" font-family="Times,serif" font-size="14.00">a</text>
</g>
<!-- {&#39;D&#39;} -->
<g id="node4" class="node">
<title>{&#39;D&#39;}</title>
<ellipse fill="none" stroke="black" cx="148.04" cy="-106.45" rx="34.39" ry="34.39"/>
<text text-anchor="middle" x="148.04" y="-102.75" font-family="Times,serif" font-size="14.00">{&#39;D&#39;}</text>
</g>
<!-- {&#39;S&#39;}&#45;&gt;{&#39;D&#39;} -->
<g id="edge2" class="edge">
<title>{&#39;S&#39;}&#45;&gt;{&#39;D&#39;}</title>
<path fill="none" stroke="black" d="M64.29,-65.16C77.35,-71.68 92.93,-79.45 107.02,-86.48"/>
<polygon fill="black" stroke="black" points="105.1,-89.43 115.61,-90.77 108.23,-83.17 105.1,-89.43"/>
<text text-anchor="middle" x="90.59" y="-83.25" font-family="Times,serif" font-size="14.00">b</text>
</g>
<!-- {&#39;S&#39;}&#45;&gt;{&#39;R&#39;} -->
<g id="edge3" class="edge">
<title>{&#39;S&#39;}&#45;&gt;{&#39;R&#39;}</title>
<path fill="none" stroke="black" d="M67.63,-49.07C135.92,-46.2 293.34,-39.6 371.01,-36.34"/>
<polygon fill="black" stroke="black" points="370.96,-39.84 380.81,-35.93 370.67,-32.85 370.96,-39.84"/>
<text text-anchor="middle" x="205.49" y="-47.25" font-family="Times,serif" font-size="14.00">f</text>
</g>
<!-- {&#39;D&#39;}&#45;&gt;{&#39;ε&#39;, &#39;R&#39;} -->
<g id="edge5" class="edge">
<title>{&#39;D&#39;}&#45;&gt;{&#39;ε&#39;, &#39;R&#39;}</title>
<path fill="none" stroke="black" d="M182.82,-109C193.28,-109.79 205.17,-110.68 216.99,-111.58"/>
<polygon fill="black" stroke="black" points="216.5,-115.05 226.74,-112.31 217.03,-108.07 216.5,-115.05"/>
<text text-anchor="middle" x="205.49" y="-114.25" font-family="Times,serif" font-size="14.00">d</text>
</g>
<!-- {&#39;D&#39;}&#45;&gt;{&#39;D&#39;} -->
<g id="edge4" class="edge">
<title>{&#39;D&#39;}&#45;&gt;{&#39;D&#39;}</title>
<path fill="none" stroke="black" d="M137.27,-139.48C137.33,-150.29 140.92,-158.89 148.04,-158.89 152.38,-158.89 155.41,-155.7 157.13,-150.76"/>
<polygon fill="black" stroke="black" points="160.57,-151.39 158.59,-140.98 153.65,-150.35 160.57,-151.39"/>
<text text-anchor="middle" x="148.04" y="-162.69" font-family="Times,serif" font-size="14.00">c</text>
</g>
<!-- {&#39;R&#39;}&#45;&gt;{&#39;ε&#39;} -->
<g id="edge7" class="edge">
<title>{&#39;R&#39;}&#45;&gt;{&#39;ε&#39;}</title>
<path fill="none" stroke="black" d="M448.64,-48.79C460.26,-54.24 473.72,-60.55 486.26,-66.43"/>
<polygon fill="black" stroke="black" points="484.61,-69.52 495.15,-70.6 487.58,-63.18 484.61,-69.52"/>
<text text-anchor="middle" x="472.47" y="-64.25" font-family="Times,serif" font-size="14.00">f</text>
</g>
<!-- {&#39;R&#39;}&#45;&gt;{&#39;R&#39;} -->
<g id="edge6" class="edge">
<title>{&#39;R&#39;}&#45;&gt;{&#39;R&#39;}</title>
<path fill="none" stroke="black" d="M406.63,-67.74C406.74,-78.42 410.2,-86.89 417.03,-86.89 421.18,-86.89 424.09,-83.75 425.76,-78.87"/>
<polygon fill="black" stroke="black" points="429.18,-79.64 427.2,-69.23 422.26,-78.61 429.18,-79.64"/>
<text text-anchor="middle" x="417.03" y="-90.69" font-family="Times,serif" font-size="14.00">b</text>
</g>
</g>
</svg>
